<?xml version="1.0" encoding="utf-8"?>
<!-- Generator: Adobe Illustrator 23.0.5, SVG Export Plug-In . SVG Version: 6.00 Build 0)  -->
<svg version="1.1" id="Capa_1" xmlns="http://www.w3.org/2000/svg" xmlns:xlink="http://www.w3.org/1999/xlink" x="0px" y="0px"
	 viewBox="0 0 375 390" style="enable-background:new 0 0 375 390;" xml:space="preserve">
<style type="text/css">
	.st0{clip-path:url(#SVGID_2_);}
	.st1{fill:#172B4D;}
	.st2{fill:#36B37E;}
	.st3{fill:#FFFFFF;stroke:#36B37E;stroke-width:0.6336;stroke-linejoin:round;stroke-miterlimit:10;}
	.st4{fill:#C5E9DA;stroke:#36B37E;stroke-width:0.6336;stroke-miterlimit:10;}
	
		.st5{fill:#FFFFFF;filter:url(#Adobe_OpacityMaskFilter);stroke:#36B37E;stroke-width:0.6336;stroke-linejoin:round;stroke-miterlimit:10;}
	.st6{mask:url(#mask0_1_);}
	.st7{fill:#C5E9DA;}
	.st8{fill:#C4C4C4;filter:url(#Adobe_OpacityMaskFilter_1_);}
	.st9{mask:url(#mask0_2_);}
	.st10{fill:#FFFFFF;stroke:#36B37E;stroke-width:0.5988;stroke-miterlimit:10;}
	.st11{fill:#FFFFFF;filter:url(#Adobe_OpacityMaskFilter_2_);stroke:#36B37E;stroke-width:0.5988;stroke-miterlimit:10;}
	.st12{mask:url(#mask1_2_);}
	.st13{fill:#C5E9DA;stroke:#36B37E;stroke-width:0.5988;stroke-miterlimit:10;}
</style>
<g>
	<defs>
		<rect id="SVGID_1_" x="-57" y="325" width="127.4" height="64.4"/>
	</defs>
	<clipPath id="SVGID_2_">
		<use xlink:href="#SVGID_1_"  style="overflow:visible;"/>
	</clipPath>
	<g class="st0">
		<path class="st1" d="M-35.2,382.2l100.7-1.3l-39-10.7l4.4-9.3l25-3.4l-6.4-1.5l-17.2-0.8L-35.2,382.2z"/>
		<path class="st2" d="M20.5,334.7l-3.1,0.1l-25.5-9.5l28.9,16.4l4.7-3.9L20.5,334.7z"/>
		<path class="st1" d="M20.5,334.7l49.7-9.1l-24.8,24.1L20.5,334.7z"/>
		<path class="st3" d="M-8.1,325.3l49.6,28.2l-11.2,2l-27.3,2L-8.1,325.3z"/>
		<path class="st3" d="M41.5,353.4l28.7-27.8L49.5,356L41.5,353.4z"/>
		<path class="st3" d="M20.8,341.6L33.6,331l1.3,1.1l-4,15.3L20.8,341.6z"/>
		<path class="st3" d="M34.9,332.1l11.6,16.5l-5.1,4.9l-10.6-6L34.9,332.1z"/>
		<path class="st3" d="M49.5,356l-19.1-0.5l11.2-2L49.5,356z"/>
		<path class="st4" d="M-16.6,348.1l64.3-22.5l-28,37.1L-16.6,348.1z"/>
		<path class="st3" d="M-56.7,341.6l72.1,26.8l-14.5,5.1l-36,8.3L-56.7,341.6z"/>
		<path class="st3" d="M15.3,368.4l32.3-42.8l-21.1,44.6L15.3,368.4z"/>
		<path class="st2" d="M-14.8,357.2l14.9-16.7l2,1.1l-2.1,21.1L-14.8,357.2z"/>
		<path class="st3" d="M2.1,341.6L21,360.9l-5.6,7.5l-15.4-5.7L2.1,341.6z"/>
		<path class="st3" d="M26.5,370.2l-25.6,3.3l14.5-5.1L26.5,370.2z"/>
		<defs>
			<filter id="Adobe_OpacityMaskFilter" filterUnits="userSpaceOnUse" x="-36.3" y="349.2" width="51.9" height="40.1">
				<feColorMatrix  type="matrix" values="1 0 0 0 0  0 1 0 0 0  0 0 1 0 0  0 0 0 1 0"/>
			</filter>
		</defs>
		<mask maskUnits="userSpaceOnUse" x="-36.3" y="349.2" width="51.9" height="40.1" id="mask0_1_">
			<path class="st5" d="M-56.8,341.8l72,26.5l-14.3,4.9l-36,8.3L-56.8,341.8z"/>
		</mask>
		<g class="st6">
			<path class="st7" d="M-13.5,369.5l-7.8,0.3l-3.6-6.3l-7.5,0.3l3.5,6.2l-7.4,0.2l3.4,6.3l7.6-0.2l7.7-0.2l3.8,6.6l8.1-0.1l4,6.8
				h8.4l-4.1-6.9l-4-6.7l-8.2,0.2L-13.5,369.5z"/>
			<path class="st2" d="M2.8,368.9l-8.2,0.3l4,6.6l8.3-0.2l8.6-0.2l-4.2-6.8l-4.1-6.6l-8.3,0.4L2.8,368.9z"/>
			<path class="st2" d="M-1,349.2l-8,0.5l3.8,6.2l8.2-0.4L-1,349.2z"/>
			<path class="st2" d="M15.6,361.7l-4.2-6.5L3,355.6l4,6.5L15.6,361.7z"/>
		</g>
	</g>
</g>
<defs>
	<filter id="Adobe_OpacityMaskFilter_1_" filterUnits="userSpaceOnUse" x="315" y="6.6" width="120.7" height="80.7">
		<feColorMatrix  type="matrix" values="1 0 0 0 0  0 1 0 0 0  0 0 1 0 0  0 0 0 1 0"/>
	</filter>
</defs>
<mask maskUnits="userSpaceOnUse" x="315" y="6.6" width="120.7" height="80.7" id="mask0_2_">
	<rect x="316.1" y="-33.7" class="st8" width="68" height="127"/>
</mask>
<g class="st9">
	<path class="st1" d="M387.9,72.3l44,15h-63.1l-8.1-0.9l-3.9-2.5l13.4-11.6H387.9z"/>
	<path class="st10" d="M382.1,44.9v-2.4c0,0-5.2-10.2-5.9-10.3c-0.7-0.1-60.6-25-60.6-25l22.8,44.4l9,9.6L382.1,44.9z"/>
	<defs>
		<filter id="Adobe_OpacityMaskFilter_2_" filterUnits="userSpaceOnUse" x="315.5" y="9" width="69.6" height="43.4">
			<feColorMatrix  type="matrix" values="1 0 0 0 0  0 1 0 0 0  0 0 1 0 0  0 0 0 1 0"/>
		</filter>
	</defs>
	<mask maskUnits="userSpaceOnUse" x="315.5" y="9" width="69.6" height="43.4" id="mask1_2_">
		<path class="st11" d="M382.3,45.1v-2.4c0,0-5.2-10.2-5.9-10.3s-60.6-25-60.6-25l22.8,44.4l9,9.6L382.3,45.1z"/>
	</mask>
	<g class="st12">
		<path class="st7" d="M357.2,33.3l-7.5,0.2l-3.4-6.1l-7.2,0.3l3.4,5.9l-7.2,0.2l3.3,6l7.2-0.1l7.5-0.2l3.6,6.3l7.7,0l3.8,6.5h8.1
			l-4-6.6l-3.9-6.5l-7.8,0.2L357.2,33.3z"/>
		<path class="st2" d="M353.6,27.2l-3.5-6l-7.3,0.4l3.4,5.9L353.6,27.2z"/>
		<path class="st2" d="M364.9,33l-3.7-6.2l-7.6,0.3l3.6,6.1L364.9,33z"/>
		<path class="st2" d="M368.9,26.5l-3.8-6.1l-7.6,0.4l3.6,6.1L368.9,26.5z"/>
		<path class="st2" d="M372.8,32.8l-7.9,0.2l3.8,6.3l8-0.1l8.2-0.2l-4.1-6.5l-4-6.4l-8,0.3L372.8,32.8z"/>
		<path class="st1" d="M332,28.1l7-0.3l-3.3-5.9l7.1-0.3l-3.3-5.8l-7,0.4l-6.8,0.4l3.1,5.7l-6.8,0.3l-6.6,0.3l3,5.7l6.7-0.3l3.1,5.8
			l7-0.2L332,28.1z"/>
		<path class="st2" d="M321.5,34.5l3.1,5.9l6.9-0.1l-3.2-5.9L321.5,34.5z"/>
		<path class="st2" d="M316.1,11.6l2.9,5.5l6.7-0.4l-3.1-5.6L316.1,11.6z"/>
		<path class="st2" d="M350.1,21.2l7.5-0.4l-3.6-5.9L350.4,9l-7.2,0.5l-7.1,0.5l3.3,5.7l7.2-0.4L350.1,21.2z"/>
		<path class="st2" d="M369.1,13.9l-7.7,0.5l3.7,6L373,20L369.1,13.9z"/>
		<path class="st2" d="M385,25.8l-4-6.3l-8,0.4l3.9,6.2L385,25.8z"/>
		<path class="st2" d="M331.5,40.2l3.3,6.1l7.2-0.1l-3.4-6.1L331.5,40.2z"/>
	</g>
	<path class="st1" d="M368.8,43.3l-27.5,5.9l-0.7,1.8l6.1,8.4L368.8,43.3z"/>
	<path class="st10" d="M392.2,50.8l-5.5-4.7l-8.6-6.5l-21.7,8.7l-1,5.2l5.3,7.5L392.2,50.8z"/>
	<path class="st10" d="M381.1,54.4l16-5.2l-9.2,23.2l-13.2,0.8L381.1,54.4z"/>
	<path class="st10" d="M363.9,59.9l-3.2,1.1l-1.5,21l1.5,4.4l14-13.2l6.4-18.8L363.9,59.9z"/>
	<path class="st13" d="M406.8,46.1l27.7,15l-70.6-1.1L406.8,46.1z"/>
	<path class="st10" d="M360.7,61.1v-3.4l-22.2-30.6l-2.9,4.7L356.8,84l2.5-2L360.7,61.1z"/>
	<path class="st10" d="M338.5,27.1l-2.9,4.7l-9.9,9.2l7.8-15.8L338.5,27.1z"/>
	<path class="st1" d="M391.5,63.4l-27.6-3.5l28.8,0.5L391.5,63.4z"/>
	<path class="st1" d="M366.9,59l-9.6-8l-0.4,1.4l3.8,5.3v3.4L366.9,59z"/>
	<path class="st13" d="M354.7,79l-2.3,2.8l-2.9-2.8L334.2,33l1.4-1.3L354.7,79z"/>
</g>
</svg>
